<svg width="19" height="18" viewBox="0 0 19 18" fill="none" xmlns="http://www.w3.org/2000/svg">
<path d="M18.18 16.8577C18.18 13.9223 14.33 11.5481 9.59 11.5481C4.85 11.5481 1 13.9223 1 16.8577M9.59 9.27256C10.9161 9.27256 12.1879 8.87299 13.1255 8.16174C14.0632 7.45049 14.59 6.48583 14.59 5.47997C14.59 4.47411 14.0632 3.50945 13.1255 2.7982C12.1879 2.08695 10.9161 1.68738 9.59 1.68738C8.26392 1.68738 6.99215 2.08695 6.05447 2.7982C5.11678 3.50945 4.59 4.47411 4.59 5.47997C4.59 6.48583 5.11678 7.45049 6.05447 8.16174C6.99215 8.87299 8.26392 9.27256 9.59 9.27256Z" stroke="white" stroke-width="1.5" stroke-linecap="round" stroke-linejoin="round"/>
</svg>
