<svg width="22" height="18" viewBox="0 0 22 18" fill="none" xmlns="http://www.w3.org/2000/svg">
<path d="M21 16.8577L19 15.3407M10.5 16.0992C11.7476 16.0992 12.9829 15.9128 14.1355 15.5507C15.2881 15.1886 16.3354 14.6578 17.2175 13.9887C18.0997 13.3195 18.7994 12.5252 19.2769 11.6509C19.7543 10.7766 20 9.8396 20 8.8933C20 7.94701 19.7543 7.00998 19.2769 6.13572C18.7994 5.26145 18.0997 4.46708 17.2175 3.79794C16.3354 3.12881 15.2881 2.59803 14.1355 2.2359C12.9829 1.87376 11.7476 1.68738 10.5 1.68738C7.98044 1.68738 5.56408 2.44657 3.78249 3.79794C2.00089 5.14932 1 6.98217 1 8.8933C1 10.8044 2.00089 12.6373 3.78249 13.9887C5.56408 15.34 7.98044 16.0992 10.5 16.0992Z" stroke="white" stroke-width="1.5" stroke-linecap="round" stroke-linejoin="round"/>
</svg>
